<?xml version="1.0" encoding="utf-8"?>
<!-- Generator: Adobe Illustrator 23.0.0, SVG Export Plug-In . SVG Version: 6.00 Build 0)  -->
<svg version="1.1" id="Layer_2" xmlns="http://www.w3.org/2000/svg" xmlns:xlink="http://www.w3.org/1999/xlink" x="0px" y="0px"
	 viewBox="0 0 890 682" style="enable-background:new 0 0 890 682;" xml:space="preserve">
<style type="text/css">
	.st0{fill:#CCCCCC;}
</style>
<g>
	<path class="st0" d="M88.5,27.5c0,0,91-39,209-10c82.27,20.22,132,70,132,70v458c0,0-73.75-56.84-164-71c-102-16-177,14-177,14
		V27.5z"/>
	<path class="st0" d="M9.5,98.5c0,0,20-14,47-13c1,12,0,384,0,397c0,18,9,28,22,34s17,1,37-3s82-20,153-5c60.48,12.78,99,37,99,37
		s-88-24-193-9c-99.88,14.27-140,32-140,32s-25,6-25-16C9.5,530.48,9.5,98.5,9.5,98.5z"/>
</g>
<g>
	<path class="st0" d="M804,27.5c0,0-91-39-209-10c-82.27,20.22-132,70-132,70v458c0,0,73.75-56.84,164-71c102-16,177,14,177,14V27.5
		z"/>
	<path class="st0" d="M883,98.5c0,0-20-14-47-13c-1,12,0,384,0,397c0,18-9,28-22,34s-17,1-37-3s-82-20-153-5
		c-60.48,12.78-99,37-99,37s88-24,193-9c99.88,14.27,140,32,140,32s25,6,25-16C883,530.48,883,98.5,883,98.5z"/>
</g>
<g>
	<path d="M94.7,619.85c0,5.52,3.98,8.28,11.94,8.28c7.96,0,11.94-2.48,11.94-7.44c0-2.64-1.36-4.8-4.08-6.48
		c-2.72-1.68-6.02-3.08-9.9-4.2c-3.88-1.12-7.76-2.42-11.64-3.9c-3.88-1.48-7.18-3.8-9.9-6.96c-2.72-3.16-4.08-7.1-4.08-11.82
		c0-20.08,12.92-30.12,38.76-30.12c9.44,0,16.58,1.78,21.42,5.34c4.84,3.56,7.26,8.5,7.26,14.82c0,2.32-0.3,4.54-0.9,6.66
		c-0.6,2.12-1.22,3.62-1.86,4.5l-0.96,1.44h-21.24c1.76-1.84,2.64-4.16,2.64-6.96c0-5.2-3.4-7.8-10.2-7.8
		c-8.56,0-12.84,2.72-12.84,8.16c0,2.72,1.36,4.88,4.08,6.48c2.72,1.6,6.02,2.86,9.9,3.78c3.88,0.92,7.78,2.06,11.7,3.42
		c3.92,1.36,7.24,3.62,9.96,6.78c2.72,3.16,4.08,7.26,4.08,12.3c0,10.16-3.04,17.7-9.12,22.62c-6.08,4.92-15.44,7.38-28.08,7.38
		c-12.64,0-21.28-2.24-25.92-6.72c-3.44-3.36-5.16-8-5.16-13.92c0-2.24,0.24-4.68,0.72-7.32l0.36-1.92h21.6l-0.24,1.44
		C94.77,618.49,94.7,619.21,94.7,619.85z"/>
	<path d="M174.13,646.13c-16.64,0-24.96-5.76-24.96-17.28c0-1.6,0.16-3.32,0.48-5.16l2.52-14.88c1.28-7.68,4.78-13.56,10.5-17.64
		c5.72-4.08,12.98-6.16,21.78-6.24c17.04,0,25.56,5.92,25.56,17.76c0,2.56-0.3,4.86-0.9,6.9c-0.6,2.04-1.22,3.42-1.86,4.14
		l-0.96,1.2h-20.4c2-1.76,3-3.84,3-6.24c0-4.32-2.16-6.48-6.48-6.48c-2.56,0-4.76,0.76-6.6,2.28c-1.84,1.52-3.04,3.84-3.6,6.96
		l-1.56,8.76c-0.16,0.8-0.24,1.56-0.24,2.28c0,4.24,2.64,6.36,7.92,6.36c1.76,0,3.34-0.56,4.74-1.68c1.4-1.12,2.22-2.36,2.46-3.72
		l19.92,0.24C202.81,638.65,192.38,646.13,174.13,646.13z"/>
	<path d="M274.09,598.97c0,2.72-0.46,5.36-1.38,7.92c-0.92,2.56-1.82,4.44-2.7,5.64l-1.32,1.68h-18.12c2-1.84,3-4.12,3-6.84
		c0-1.44-0.46-2.62-1.38-3.54c-0.92-0.92-2.18-1.38-3.78-1.38c-2.72,0-5.08,1.36-7.08,4.08l-6.72,37.92h-20.4l10.2-57.72h18.96
		l-1.44,8.04c4.56-6.48,10.08-9.72,16.56-9.72c5.2,0,9.1,1.24,11.7,3.72C272.79,591.25,274.09,594.65,274.09,598.97z"/>
	<path d="M302.89,629.09c1.84,0,3.48-0.4,4.92-1.2l-0.6,13.56c-3.76,3.12-8.04,4.68-12.84,4.68c-7.28,0-12-1.68-14.16-5.04
		c-1.44-2.24-2.16-4.62-2.16-7.14c0-2.52,0.16-4.74,0.48-6.66l7.2-40.56h20.4l-6.72,37.8c-0.08,0.48-0.12,0.92-0.12,1.32
		C299.29,628.01,300.49,629.09,302.89,629.09z M288.13,567.17c0-5.12,1.14-8.86,3.42-11.22c2.28-2.36,5.82-3.54,10.62-3.54
		c6.72,0,10.08,2.96,10.08,8.88c0,5.04-1.14,8.72-3.42,11.04c-2.28,2.32-5.86,3.48-10.74,3.48
		C291.45,575.81,288.13,572.93,288.13,567.17z"/>
	<path d="M356.77,585.17c8.16,0,13.8,2.16,16.92,6.48c2.24,2.96,3.36,6.72,3.36,11.28c0,1.84-0.2,3.8-0.6,5.88l-2.4,14.04
		c-1.36,7.6-4.28,13.38-8.76,17.34c-4.48,3.96-10.08,5.94-16.8,5.94s-11.4-1.8-14.04-5.4l-6.48,37.08h-20.4l16.08-91.08h18.48
		l-0.6,3.24C345.29,586.77,350.37,585.17,356.77,585.17z M344.29,628.85c2.24,0,4.32-0.72,6.24-2.16s3.12-3.6,3.6-6.48l1.56-9
		c0.16-0.8,0.24-1.8,0.24-3s-0.52-2.48-1.56-3.84c-1.04-1.36-2.84-2.04-5.4-2.04c-4.16,0-6.88,1-8.16,3l-3.6,20.16
		C338.33,627.73,340.69,628.85,344.29,628.85z"/>
	<path d="M409.93,646.13c-9.28,0-15.96-2.08-20.04-6.24c-3.04-3.04-4.56-7.12-4.56-12.24c0-1.68,0.16-3.48,0.48-5.4l8.16-46.44
		l21.96-9.12l-3.48,20.04h33.12l-3,16.92h-33.12l-2.4,13.56c-0.32,1.52-0.48,2.88-0.48,4.08c0,5.04,2.4,7.56,7.2,7.56
		c2.56,0,4.7-1.08,6.42-3.24c1.72-2.16,2.9-5.04,3.54-8.64h19.92C440.29,636.41,429.05,646.13,409.93,646.13z"/>
	<path d="M486.01,585.05c8.64,0,15.16,1.88,19.56,5.64c3.44,2.96,5.16,7.08,5.16,12.36c0,1.76-0.2,3.68-0.6,5.76l-2.52,14.04
		c-1.52,8.48-5.06,14.48-10.62,18c-5.56,3.52-12.98,5.28-22.26,5.28c-9.28,0-16.08-1.76-20.4-5.28c-3.2-2.64-4.8-6.6-4.8-11.88
		c0-1.84,0.2-3.88,0.6-6.12l2.52-14.04C455.45,592.97,466.57,585.05,486.01,585.05z M489.25,611.21c0.16-0.8,0.24-1.82,0.24-3.06
		c0-1.24-0.52-2.62-1.56-4.14c-1.04-1.52-2.86-2.28-5.46-2.28c-2.6,0-4.78,0.86-6.54,2.58c-1.76,1.72-2.88,4.02-3.36,6.9l-1.56,9
		c-0.16,0.8-0.24,1.82-0.24,3.06c0,1.24,0.52,2.58,1.56,4.02c1.04,1.44,2.86,2.16,5.46,2.16c2.6,0,4.78-0.9,6.54-2.7
		c1.76-1.8,2.88-3.98,3.36-6.54L489.25,611.21z"/>
	<path d="M576.01,598.97c0,2.72-0.46,5.36-1.38,7.92c-0.92,2.56-1.82,4.44-2.7,5.64l-1.32,1.68h-18.12c2-1.84,3-4.12,3-6.84
		c0-1.44-0.46-2.62-1.38-3.54c-0.92-0.92-2.18-1.38-3.78-1.38c-2.72,0-5.08,1.36-7.08,4.08l-6.72,37.92h-20.4l10.2-57.72h18.96
		l-1.44,8.04c4.56-6.48,10.08-9.72,16.56-9.72c5.2,0,9.1,1.24,11.7,3.72C574.71,591.25,576.01,594.65,576.01,598.97z"/>
	<path d="M604.81,629.09c1.84,0,3.48-0.4,4.92-1.2l-0.6,13.56c-3.76,3.12-8.04,4.68-12.84,4.68c-7.28,0-12-1.68-14.16-5.04
		c-1.44-2.24-2.16-4.62-2.16-7.14c0-2.52,0.16-4.74,0.48-6.66l7.2-40.56h20.4l-6.72,37.8c-0.08,0.48-0.12,0.92-0.12,1.32
		C601.21,628.01,602.41,629.09,604.81,629.09z M590.05,567.17c0-5.12,1.14-8.86,3.42-11.22c2.28-2.36,5.82-3.54,10.62-3.54
		c6.72,0,10.08,2.96,10.08,8.88c0,5.04-1.14,8.72-3.42,11.04c-2.28,2.32-5.86,3.48-10.74,3.48
		C593.37,575.81,590.05,572.93,590.05,567.17z"/>
	<path d="M673.33,625.97c0,2.08,1.06,3.12,3.18,3.12c2.12,0,3.9-0.4,5.34-1.2l-0.6,13.56c-3.84,3.12-8.16,4.68-12.96,4.68
		c-8.8,0-13.68-3.2-14.64-9.6c-4,6.4-9.88,9.6-17.64,9.6c-13.12,0-19.68-5.64-19.68-16.92c0-1.92,0.2-4.04,0.6-6.36l2.52-14.04
		c1.28-7.2,4.22-12.94,8.82-17.22c4.6-4.28,10.6-6.42,18-6.42c7.4,0,12.42,1.72,15.06,5.16l0.6-3.6h18.24l-6.72,37.8
		C673.37,625.01,673.33,625.49,673.33,625.97z M637.81,620.21c-0.16,0.72-0.24,1.72-0.24,3c0,1.28,0.6,2.54,1.8,3.78
		c1.2,1.24,3.22,1.86,6.06,1.86c2.84,0,5.3-1.12,7.38-3.36l3.6-20.16c-0.88-2-2.96-3-6.24-3c-6.16,0-9.76,2.96-10.8,8.88
		L637.81,620.21z"/>
	<path d="M727.92,607.61c0-3.44-1.66-5.16-4.98-5.16c-3.32,0-6.06,1.24-8.22,3.72L708,644.45h-20.4l10.2-57.72h18.96l-1.32,7.08
		c4.72-5.84,10.68-8.76,17.88-8.76c7.2,0,11.88,1.76,14.04,5.28c1.36,2.24,2.04,4.8,2.04,7.68c0,2.88-0.2,5.56-0.6,8.04l-3.24,18.48
		c-0.08,0.48-0.12,0.92-0.12,1.32c0,2.16,1.2,3.24,3.6,3.24c1.84,0,3.48-0.4,4.92-1.2l-0.6,13.56c-3.76,3.12-8.04,4.68-12.84,4.68
		c-10.88,0-16.32-4.56-16.32-13.68c0-1.6,0.16-3.32,0.48-5.16l2.88-15.96C727.8,609.89,727.92,608.65,727.92,607.61z"/>
	<path d="M821.04,599.21c0,2.64-0.8,5.08-2.4,7.32h-19.68c0.64-0.48,0.96-1.28,0.96-2.4c0-1.12-0.64-2.02-1.92-2.7
		c-1.28-0.68-2.92-1.02-4.92-1.02c-6,0-9,1.84-9,5.52c0,1.44,1.12,2.48,3.36,3.12c2.24,0.64,4.96,1.16,8.16,1.56
		c3.2,0.4,6.4,0.98,9.6,1.74c3.2,0.76,5.92,2.26,8.16,4.5c2.24,2.24,3.36,5.24,3.36,9c0,6.64-2.66,11.68-7.98,15.12
		c-5.32,3.44-13.06,5.16-23.22,5.16c-10.16,0-17.28-1.64-21.36-4.92c-3.2-2.56-4.8-6.08-4.8-10.56c0-1.28,0.12-2.6,0.36-3.96
		l20.04-0.24c-0.16,1.12,0.5,2.1,1.98,2.94c1.48,0.84,3.66,1.26,6.54,1.26s4.96-0.3,6.24-0.9c1.28-0.6,1.92-1.74,1.92-3.42
		c0-1.12-1.12-1.9-3.36-2.34c-2.24-0.44-4.98-0.82-8.22-1.14c-3.24-0.32-6.48-0.84-9.72-1.56s-5.98-2.24-8.22-4.56
		c-2.24-2.32-3.36-5.36-3.36-9.12c0-7.28,2.82-12.88,8.46-16.8c5.64-3.92,13.78-5.88,24.42-5.88
		C812.84,584.93,821.04,589.69,821.04,599.21z"/>
</g>
<g>
</g>
<g>
</g>
<g>
</g>
<g>
</g>
<g>
</g>
<g>
</g>
<g>
</g>
<g>
</g>
<g>
</g>
<g>
</g>
<g>
</g>
<g>
</g>
<g>
</g>
<g>
</g>
<g>
</g>
</svg>
