<svg version="1.1" id="Layer_2" xmlns="http://www.w3.org/2000/svg" xmlns:xlink="http://www.w3.org/1999/xlink" x="0px" y="0px" viewBox="0 0 900 900" style="enable-background:new 0 0 900 900;" xml:space="preserve">
	<symbol viewBox="0 0 900 900" id="logo-book-only">
		<path class="st0" d="M92.5,187.5c0,0,91-39,209-10c82.27,20.22,132,70,132,70v458c0,0-73.75-56.84-164-71c-102-16-177,14-177,14 V187.5z"/>
		<path class="st0" d="M13.5,258.5c0,0,20-14,47-13c1,12,0,384,0,397c0,18,9,28,22,34s17,1,37-3s82-20,153-5c60.48,12.78,99,37,99,37 s-88-24-193-9c-99.88,14.27-140,32-140,32s-25,6-25-16C13.5,690.48,13.5,258.5,13.5,258.5z"/>
		<path class="st0" d="M808,187.5c0,0-91-39-209-10c-82.27,20.22-132,70-132,70v458c0,0,73.75-56.84,164-71c102-16,177,14,177,14 V187.5z"/>
		<path class="st0" d="M887,258.5c0,0-20-14-47-13c-1,12,0,384,0,397c0,18-9,28-22,34s-17,1-37-3s-82-20-153-5 c-60.48,12.78-99,37-99,37s88-24,193-9c99.88,14.27,140,32,140,32s25,6,25-16C887,690.48,887,258.5,887,258.5z"/>
	</symbol>
</svg>
